<svg width="116" height="140" viewBox="0 0 116 140" fill="current" xmlns="http://www.w3.org/2000/svg">
    <path d="M106.375 66.1367C104.281 63.388 101.965 60.8358 99.4246 58.4797C100.15 55.3384 100.541 52.0849 100.541 48.7191C100.541 41.1181 98.5593 33.9938 95.0981 27.7954C98.4196 24.9064 100.541 20.6152 100.541 15.847C100.541 7.09609 93.4791 0.0280479 84.798 0.0280479C78.9364 0.0280479 73.8005 3.25355 71.0928 8.04972C66.9618 6.70342 62.5514 5.97419 57.9458 5.97419C53.3681 5.97419 48.958 6.70342 44.7989 8.04972C42.1193 3.22549 37.0112 0 31.1215 0C22.4406 0 15.3786 7.09609 15.3786 15.819C15.3786 20.5871 17.5 24.8785 20.8216 27.7673C17.3604 33.966 15.3786 41.09 15.3786 48.6909C15.3786 52.0568 15.7694 55.3103 16.4951 58.4516C13.6201 61.1161 10.9963 64.0893 8.67948 67.2587C-1.78788 81.6471 -2.59735 101.056 6.83722 116.146C6.86514 116.202 6.92096 116.286 6.94888 116.342C12.1407 124.56 18.3095 129.805 22.5243 132.722C25.4551 134.77 27.437 135.667 27.437 135.667C27.437 135.667 27.437 135.695 27.437 135.752C29.6701 136.901 31.8471 137.855 33.8571 138.669C39.5513 140.912 45.9154 137.743 47.5902 131.825C48.7625 127.589 47.1435 123.13 43.5986 120.55C39.328 117.464 36.4529 113.762 34.499 110.003C34.4432 109.919 34.4153 109.835 34.3593 109.779C32.6845 106.47 31.7077 103.104 31.1773 100.047C31.0378 98.9528 30.9539 97.8589 30.9539 96.709C30.9539 92.1651 32.0705 87.9018 34.0802 84.1715C34.2478 83.8631 34.4153 83.5544 34.6106 83.2178C32.7963 81.4228 31.6519 78.9266 31.6519 76.1779C31.6519 70.7085 36.062 66.305 41.4771 66.305C45.078 66.305 48.2042 68.2404 49.9069 71.1292C52.3352 70.4 54.8753 70.0074 57.5272 70.0074C60.5975 70.0074 63.5564 70.5402 66.3198 71.4939C67.9944 68.4087 71.2325 66.305 74.9728 66.305C80.4158 66.305 84.798 70.7366 84.798 76.1779C84.798 79.3752 83.2629 82.208 80.9183 84.0314C81.0019 84.1996 81.0856 84.3398 81.1695 84.5081C83.0395 88.1824 84.1003 92.3053 84.1003 96.709C84.1003 97.9149 84.0166 99.0929 83.8491 100.271C83.2908 103.216 82.3418 106.413 80.7507 109.555C80.4994 110.06 80.2203 110.593 79.9133 111.097C77.9872 114.407 75.3077 117.604 71.5395 120.325C67.9944 122.906 66.3756 127.365 67.5479 131.6C69.1949 137.518 75.5868 140.688 81.2811 138.444C83.5699 137.546 86.0542 136.425 88.5943 135.078C89.5991 134.517 91.2181 133.564 93.1721 132.133C97.5822 128.936 103.695 123.467 108.719 115.052C109.166 114.295 109.613 113.509 110.031 112.696C118.098 97.8589 116.591 79.5156 106.375 66.1367ZM70.2275 46.1106C70.1159 47.3727 69.6413 48.6631 68.8597 49.9531C67.9944 51.3555 66.7384 52.7581 65.1194 54.1323C63.333 55.6188 61.1 57.0774 58.5041 58.4516C58.4762 58.4797 58.4204 58.4797 58.3925 58.4797C58.3646 58.4797 58.3086 58.4797 58.2807 58.4516C55.5454 57.3017 53.2287 56.0395 51.3305 54.6932C49.5999 53.4591 48.2321 52.169 47.2553 50.8227C46.3619 49.6165 45.8038 48.3544 45.5805 47.1203C45.385 45.9704 45.4687 44.8765 45.8596 43.8386C45.9154 43.6703 45.9991 43.4742 46.0827 43.3059C47.4505 40.4449 50.8838 38.8462 53.8985 39.7999C55.1266 40.1925 56.1316 40.8096 56.9129 41.679C57.0526 41.8473 57.1921 41.9877 57.3039 42.156C57.4712 42.3803 57.583 42.5767 57.6946 42.745C57.7785 42.5767 57.9179 42.3521 58.0576 42.1278C58.6156 41.2583 59.6764 40.1644 61.407 39.4633C64.5054 38.2011 68.3014 39.7439 69.725 42.8291C69.781 42.9693 69.8368 43.1376 69.8926 43.2777C70.1996 44.2033 70.3393 45.1289 70.2275 46.1106Z"/>
    <path d="M64.6181 90.9878C63.5574 89.6696 61.6594 89.1087 60.0962 89.7538C58.9518 90.2305 58.2819 90.9878 57.9749 91.5208C57.9191 91.605 57.8913 91.661 57.8631 91.717C57.8352 91.661 57.7795 91.5769 57.7237 91.5208C57.64 91.3804 57.5282 91.2403 57.3888 91.072C56.9142 90.539 56.3001 90.1745 55.5743 89.9221C54.1507 89.4732 52.5877 89.9781 51.5827 91.016C51.2199 91.4086 50.9129 91.8574 50.7453 92.3623C50.5222 92.9792 50.4662 93.6524 50.578 94.3537C50.7174 95.111 51.0526 95.8683 51.5827 96.5975C52.1689 97.4108 53.0063 98.1962 54.0392 98.9254C55.1836 99.7387 56.6071 100.496 58.2262 101.197C58.2541 101.197 58.2819 101.197 58.2819 101.197C58.3098 101.197 58.3377 101.197 58.3377 101.169C59.9289 100.328 61.2685 99.4584 62.3293 98.5607C63.3064 97.7474 64.0599 96.8778 64.5902 96.0366C65.0648 95.2511 65.344 94.4657 65.4276 93.7084C65.4834 93.0073 65.3719 92.3623 65.0927 91.7451C64.9809 91.4927 64.8136 91.2121 64.6181 90.9878Z"/>
</svg>
